<svg width="142" height="250" viewBox="0 0 142 250" fill="none" xmlns="http://www.w3.org/2000/svg">
<path fill-rule="evenodd" clip-rule="evenodd" d="M141.304 202.785V250H0.681505V206.861C8.40522 200.747 11.9263 197.917 11.2448 198.37C33.5073 180.027 50.9993 164.968 63.7207 153.193C76.6693 141.418 87.5733 129.076 96.4329 116.168C105.292 103.261 109.722 90.6929 109.722 78.4647C109.722 69.1802 107.564 61.9339 103.248 56.7255C98.9317 51.5172 92.4574 48.913 83.8251 48.913C75.1927 48.913 68.3776 52.1966 63.3799 58.7636C58.6094 65.1042 56.2241 74.1621 56.2241 85.9375H0C0.454336 66.6893 4.54336 50.6114 12.2671 37.7038C20.218 24.7962 30.5541 15.2853 43.2755 9.1712C56.2241 3.05707 70.5357 0 86.2103 0C109.586 0 127.95 5.16414 141.304 15.4924V144.551C125.003 164.383 104.48 183.795 79.736 202.785H141.304Z" fill="white"/>
</svg>
