<svg width="229" height="97" viewBox="0 0 229 97" fill="none" xmlns="http://www.w3.org/2000/svg">
<path d="M0.26 79.17C3.20667 76.83 4.55 75.7467 4.29 75.92C12.7833 68.9 19.4567 63.1367 24.31 58.63C29.25 54.1233 33.41 49.4 36.79 44.46C40.17 39.52 41.86 34.71 41.86 30.03C41.86 26.4767 41.0367 23.7033 39.39 21.71C37.7433 19.7167 35.2733 18.72 31.98 18.72C28.6867 18.72 26.0867 19.9767 24.18 22.49C22.36 24.9167 21.45 28.3833 21.45 32.89H0C0.173333 25.5233 1.73333 19.37 4.68 14.43C7.71333 9.49 11.6567 5.85 16.51 3.51C21.45 1.17 26.91 0 32.89 0C43.2033 0 50.96 2.64333 56.16 7.93C61.4467 13.2167 64.09 20.1067 64.09 28.6C64.09 37.8733 60.9267 46.4967 54.6 54.47C48.2733 62.3567 40.2133 70.07 30.42 77.61H65.52V95.68H0.26V79.17Z" fill="url(#paint0_radial)"/>
<path d="M0.26 79.17C3.20667 76.83 4.55 75.7467 4.29 75.92C12.7833 68.9 19.4567 63.1367 24.31 58.63C29.25 54.1233 33.41 49.4 36.79 44.46C40.17 39.52 41.86 34.71 41.86 30.03C41.86 26.4767 41.0367 23.7033 39.39 21.71C37.7433 19.7167 35.2733 18.72 31.98 18.72C28.6867 18.72 26.0867 19.9767 24.18 22.49C22.36 24.9167 21.45 28.3833 21.45 32.89H0C0.173333 25.5233 1.73333 19.37 4.68 14.43C7.71333 9.49 11.6567 5.85 16.51 3.51C21.45 1.17 26.91 0 32.89 0C43.2033 0 50.96 2.64333 56.16 7.93C61.4467 13.2167 64.09 20.1067 64.09 28.6C64.09 37.8733 60.9267 46.4967 54.6 54.47C48.2733 62.3567 40.2133 70.07 30.42 77.61H65.52V95.68H0.26V79.17Z" fill="url(#paint1_angular)" style="mix-blend-mode:difference"/>
<path d="M0.26 79.17C3.20667 76.83 4.55 75.7467 4.29 75.92C12.7833 68.9 19.4567 63.1367 24.31 58.63C29.25 54.1233 33.41 49.4 36.79 44.46C40.17 39.52 41.86 34.71 41.86 30.03C41.86 26.4767 41.0367 23.7033 39.39 21.71C37.7433 19.7167 35.2733 18.72 31.98 18.72C28.6867 18.72 26.0867 19.9767 24.18 22.49C22.36 24.9167 21.45 28.3833 21.45 32.89H0C0.173333 25.5233 1.73333 19.37 4.68 14.43C7.71333 9.49 11.6567 5.85 16.51 3.51C21.45 1.17 26.91 0 32.89 0C43.2033 0 50.96 2.64333 56.16 7.93C61.4467 13.2167 64.09 20.1067 64.09 28.6C64.09 37.8733 60.9267 46.4967 54.6 54.47C48.2733 62.3567 40.2133 70.07 30.42 77.61H65.52V95.68H0.26V79.17Z" fill="url(#paint2_angular)" style="mix-blend-mode:screen"/>
<path d="M75.3076 48.23C75.3076 33.3233 78.1676 21.58 83.8876 13C89.6942 4.42 99.0109 0.129998 111.838 0.129998C124.664 0.129998 133.938 4.42 139.658 13C145.464 21.58 148.368 33.3233 148.368 48.23C148.368 63.31 145.464 75.14 139.658 83.72C133.938 92.3 124.664 96.59 111.838 96.59C99.0109 96.59 89.6942 92.3 83.8876 83.72C78.1676 75.14 75.3076 63.31 75.3076 48.23ZM126.528 48.23C126.528 39.4767 125.574 32.76 123.668 28.08C121.761 23.3133 117.818 20.93 111.838 20.93C105.858 20.93 101.914 23.3133 100.008 28.08C98.1009 32.76 97.1476 39.4767 97.1476 48.23C97.1476 54.1233 97.4942 59.02 98.1876 62.92C98.8809 66.7333 100.268 69.8533 102.348 72.28C104.514 74.62 107.678 75.79 111.838 75.79C115.998 75.79 119.118 74.62 121.198 72.28C123.364 69.8533 124.794 66.7333 125.488 62.92C126.181 59.02 126.528 54.1233 126.528 48.23Z" fill="url(#paint3_radial)"/>
<path d="M75.3076 48.23C75.3076 33.3233 78.1676 21.58 83.8876 13C89.6942 4.42 99.0109 0.129998 111.838 0.129998C124.664 0.129998 133.938 4.42 139.658 13C145.464 21.58 148.368 33.3233 148.368 48.23C148.368 63.31 145.464 75.14 139.658 83.72C133.938 92.3 124.664 96.59 111.838 96.59C99.0109 96.59 89.6942 92.3 83.8876 83.72C78.1676 75.14 75.3076 63.31 75.3076 48.23ZM126.528 48.23C126.528 39.4767 125.574 32.76 123.668 28.08C121.761 23.3133 117.818 20.93 111.838 20.93C105.858 20.93 101.914 23.3133 100.008 28.08C98.1009 32.76 97.1476 39.4767 97.1476 48.23C97.1476 54.1233 97.4942 59.02 98.1876 62.92C98.8809 66.7333 100.268 69.8533 102.348 72.28C104.514 74.62 107.678 75.79 111.838 75.79C115.998 75.79 119.118 74.62 121.198 72.28C123.364 69.8533 124.794 66.7333 125.488 62.92C126.181 59.02 126.528 54.1233 126.528 48.23Z" fill="url(#paint4_angular)" style="mix-blend-mode:difference"/>
<path d="M75.3076 48.23C75.3076 33.3233 78.1676 21.58 83.8876 13C89.6942 4.42 99.0109 0.129998 111.838 0.129998C124.664 0.129998 133.938 4.42 139.658 13C145.464 21.58 148.368 33.3233 148.368 48.23C148.368 63.31 145.464 75.14 139.658 83.72C133.938 92.3 124.664 96.59 111.838 96.59C99.0109 96.59 89.6942 92.3 83.8876 83.72C78.1676 75.14 75.3076 63.31 75.3076 48.23ZM126.528 48.23C126.528 39.4767 125.574 32.76 123.668 28.08C121.761 23.3133 117.818 20.93 111.838 20.93C105.858 20.93 101.914 23.3133 100.008 28.08C98.1009 32.76 97.1476 39.4767 97.1476 48.23C97.1476 54.1233 97.4942 59.02 98.1876 62.92C98.8809 66.7333 100.268 69.8533 102.348 72.28C104.514 74.62 107.678 75.79 111.838 75.79C115.998 75.79 119.118 74.62 121.198 72.28C123.364 69.8533 124.794 66.7333 125.488 62.92C126.181 59.02 126.528 54.1233 126.528 48.23Z" fill="url(#paint5_angular)" style="mix-blend-mode:screen"/>
<path d="M228.232 61.49H205.612V84.63H184.552V61.49H161.932V41.6H184.552V18.33H205.612V41.6H228.232V61.49Z" fill="url(#paint6_radial)"/>
<path d="M228.232 61.49H205.612V84.63H184.552V61.49H161.932V41.6H184.552V18.33H205.612V41.6H228.232V61.49Z" fill="url(#paint7_angular)" style="mix-blend-mode:difference"/>
<path d="M228.232 61.49H205.612V84.63H184.552V61.49H161.932V41.6H184.552V18.33H205.612V41.6H228.232V61.49Z" fill="url(#paint8_angular)" style="mix-blend-mode:screen"/>
<defs>
<radialGradient id="paint0_radial" cx="0" cy="0" r="1" gradientUnits="userSpaceOnUse" gradientTransform="translate(83.3558 -36.4923) rotate(80.1553) scale(188.244 230.302)">
<stop stop-color="#2AD0CA"/>
<stop offset="0.229167" stop-color="#E1F664"/>
<stop offset="0.46875" stop-color="#FEB0FE"/>
<stop offset="0.682292" stop-color="#ABB3FC"/>
<stop offset="0.875" stop-color="#5DF7A4"/>
<stop offset="1" stop-color="#58C4F6"/>
</radialGradient>
<radialGradient id="paint1_angular" cx="0" cy="0" r="1" gradientUnits="userSpaceOnUse" gradientTransform="translate(115.542 51.48) rotate(85.3151) scale(97.8268 120.625)">
<stop offset="0.000690214" stop-color="white"/>
<stop offset="0.140625"/>
<stop offset="0.144348"/>
<stop offset="0.244792" stop-color="white"/>
<stop offset="0.395833"/>
<stop offset="0.546875" stop-color="white"/>
<stop offset="0.713542"/>
<stop offset="0.833333" stop-color="white"/>
<stop offset="0.931117"/>
<stop offset="0.931504"/>
</radialGradient>
<radialGradient id="paint2_angular" cx="0" cy="0" r="1" gradientUnits="userSpaceOnUse" gradientTransform="translate(115.542 51.48) rotate(85.3151) scale(97.8268 120.625)">
<stop offset="0.000690214" stop-color="white"/>
<stop offset="0.140625"/>
<stop offset="0.144348"/>
<stop offset="0.244792" stop-color="white"/>
<stop offset="0.395833"/>
<stop offset="0.546875" stop-color="white"/>
<stop offset="0.713542"/>
<stop offset="0.833333" stop-color="white"/>
<stop offset="0.931117"/>
<stop offset="0.931504"/>
</radialGradient>
<radialGradient id="paint3_radial" cx="0" cy="0" r="1" gradientUnits="userSpaceOnUse" gradientTransform="translate(83.3558 -36.4923) rotate(80.1553) scale(188.244 230.302)">
<stop stop-color="#2AD0CA"/>
<stop offset="0.229167" stop-color="#E1F664"/>
<stop offset="0.46875" stop-color="#FEB0FE"/>
<stop offset="0.682292" stop-color="#ABB3FC"/>
<stop offset="0.875" stop-color="#5DF7A4"/>
<stop offset="1" stop-color="#58C4F6"/>
</radialGradient>
<radialGradient id="paint4_angular" cx="0" cy="0" r="1" gradientUnits="userSpaceOnUse" gradientTransform="translate(115.542 51.48) rotate(85.3151) scale(97.8268 120.625)">
<stop offset="0.000690214" stop-color="white"/>
<stop offset="0.140625"/>
<stop offset="0.144348"/>
<stop offset="0.244792" stop-color="white"/>
<stop offset="0.395833"/>
<stop offset="0.546875" stop-color="white"/>
<stop offset="0.713542"/>
<stop offset="0.833333" stop-color="white"/>
<stop offset="0.931117"/>
<stop offset="0.931504"/>
</radialGradient>
<radialGradient id="paint5_angular" cx="0" cy="0" r="1" gradientUnits="userSpaceOnUse" gradientTransform="translate(115.542 51.48) rotate(85.3151) scale(97.8268 120.625)">
<stop offset="0.000690214" stop-color="white"/>
<stop offset="0.140625"/>
<stop offset="0.144348"/>
<stop offset="0.244792" stop-color="white"/>
<stop offset="0.395833"/>
<stop offset="0.546875" stop-color="white"/>
<stop offset="0.713542"/>
<stop offset="0.833333" stop-color="white"/>
<stop offset="0.931117"/>
<stop offset="0.931504"/>
</radialGradient>
<radialGradient id="paint6_radial" cx="0" cy="0" r="1" gradientUnits="userSpaceOnUse" gradientTransform="translate(83.3558 -36.4923) rotate(80.1553) scale(188.244 230.302)">
<stop stop-color="#2AD0CA"/>
<stop offset="0.229167" stop-color="#E1F664"/>
<stop offset="0.46875" stop-color="#FEB0FE"/>
<stop offset="0.682292" stop-color="#ABB3FC"/>
<stop offset="0.875" stop-color="#5DF7A4"/>
<stop offset="1" stop-color="#58C4F6"/>
</radialGradient>
<radialGradient id="paint7_angular" cx="0" cy="0" r="1" gradientUnits="userSpaceOnUse" gradientTransform="translate(115.542 51.48) rotate(85.3151) scale(97.8268 120.625)">
<stop offset="0.000690214" stop-color="white"/>
<stop offset="0.140625"/>
<stop offset="0.144348"/>
<stop offset="0.244792" stop-color="white"/>
<stop offset="0.395833"/>
<stop offset="0.546875" stop-color="white"/>
<stop offset="0.713542"/>
<stop offset="0.833333" stop-color="white"/>
<stop offset="0.931117"/>
<stop offset="0.931504"/>
</radialGradient>
<radialGradient id="paint8_angular" cx="0" cy="0" r="1" gradientUnits="userSpaceOnUse" gradientTransform="translate(115.542 51.48) rotate(85.3151) scale(97.8268 120.625)">
<stop offset="0.000690214" stop-color="white"/>
<stop offset="0.140625"/>
<stop offset="0.144348"/>
<stop offset="0.244792" stop-color="white"/>
<stop offset="0.395833"/>
<stop offset="0.546875" stop-color="white"/>
<stop offset="0.713542"/>
<stop offset="0.833333" stop-color="white"/>
<stop offset="0.931117"/>
<stop offset="0.931504"/>
</radialGradient>
</defs>
</svg>
