<svg width="158" height="251" viewBox="0 0 158 251" fill="none" xmlns="http://www.w3.org/2000/svg">
<path fill-rule="evenodd" clip-rule="evenodd" d="M144.1 250.644H38.8519C34.3717 248.214 30.1901 245.42 26.307 242.261C9.70435 228.567 0.935359 207.91 0 180.29H58.2261C58.4599 190.503 61.3829 198.626 66.9951 204.661C72.6073 210.463 80.7916 213.365 91.5483 213.365C100.668 213.365 107.683 210.812 112.594 205.705C117.738 200.367 120.311 193.404 120.311 184.816C120.311 173.675 116.686 165.668 109.437 160.794C102.422 155.687 91.0806 153.134 75.4133 153.134H64.189V104.741H75.4133C87.3392 104.741 96.9266 102.768 104.176 98.8226C111.659 94.6448 115.4 87.3336 115.4 76.889C115.4 68.5334 113.062 62.0345 108.385 57.3925C103.708 52.7505 97.2774 50.4294 89.093 50.4294C80.2071 50.4294 73.5426 53.0986 69.0997 58.4369C64.8905 63.7753 62.4352 70.3902 61.7337 78.2816H3.15684C4.0922 53.4468 12.2766 34.2984 27.71 20.8365C43.1434 7.37462 64.0721 0.643677 90.496 0.643677C108.034 0.643677 123 3.661 135.393 9.69564C144.548 14.0709 152.044 19.6052 157.88 26.2986V111.898C151.143 118.877 143.53 123.803 135.042 126.675V128.067C143.892 130.995 151.505 135.202 157.88 140.688V240.362C153.878 244.224 149.284 247.651 144.1 250.644Z" fill="white"/>
</svg>
