<svg width="51" height="50" viewBox="0 0 51 50" fill="none" xmlns="http://www.w3.org/2000/svg">
<path d="M34.6696 6.75765C37.0803 6.76484 39.3902 7.72568 41.0949 9.43032C42.7995 11.1349 43.7603 13.4449 43.7675 15.8556V34.0494C43.7603 36.4601 42.7995 38.7701 41.0949 40.4747C39.3902 42.1793 37.0803 43.1402 34.6696 43.1474H16.4758C14.0651 43.1402 11.7551 42.1793 10.0505 40.4747C8.34588 38.7701 7.38504 36.4601 7.37784 34.0494V15.8556C7.38504 13.4449 8.34588 11.1349 10.0505 9.43032C11.7551 7.72568 14.0651 6.76484 16.4758 6.75765H34.6696ZM34.6696 3.11906H16.4758C9.47053 3.11906 3.73926 8.85034 3.73926 15.8556V34.0494C3.73926 41.0547 9.47053 46.7859 16.4758 46.7859H34.6696C41.6749 46.7859 47.4061 41.0547 47.4061 34.0494V15.8556C47.4061 8.85034 41.6749 3.11906 34.6696 3.11906Z" fill="white"/>
<path d="M37.3986 27.6817C36.8588 27.6817 36.3312 27.5216 35.8824 27.2217C35.4336 26.9218 35.0837 26.4956 34.8772 25.9969C34.6706 25.4982 34.6166 24.9495 34.7219 24.4201C34.8272 23.8906 35.0871 23.4044 35.4688 23.0227C35.8505 22.641 36.3368 22.3811 36.8662 22.2758C37.3956 22.1704 37.9443 22.2245 38.443 22.4311C38.9417 22.6376 39.368 22.9874 39.6678 23.4362C39.9677 23.8851 40.1278 24.4127 40.1278 24.9525C40.1286 25.3111 40.0585 25.6664 39.9216 25.9978C39.7847 26.3293 39.5837 26.6305 39.3302 26.884C39.0766 27.1376 38.7754 27.3386 38.4439 27.4755C38.1125 27.6124 37.7572 27.6824 37.3986 27.6817Z" fill="white"/>
<path d="M25.5725 17.6744C27.012 17.6744 28.4191 18.1012 29.616 18.9009C30.8129 19.7007 31.7457 20.8374 32.2966 22.1673C32.8475 23.4972 32.9916 24.9606 32.7108 26.3724C32.4299 27.7842 31.7368 29.0811 30.7189 30.0989C29.701 31.1168 28.4042 31.81 26.9924 32.0908C25.5806 32.3716 24.1172 32.2275 22.7873 31.6766C21.4574 31.1258 20.3207 30.1929 19.5209 28.996C18.7212 27.7991 18.2943 26.392 18.2943 24.9525C18.2964 23.0229 19.0639 21.1728 20.4283 19.8084C21.7928 18.4439 23.6428 17.6764 25.5725 17.6744ZM25.5725 14.0358C23.4134 14.0358 21.3027 14.676 19.5075 15.8756C17.7122 17.0751 16.313 18.7801 15.4868 20.7749C14.6605 22.7696 14.4443 24.9646 14.8655 27.0822C15.2868 29.1999 16.3265 31.1451 17.8532 32.6718C19.3799 34.1985 21.3251 35.2382 23.4427 35.6595C25.5604 36.0807 27.7554 35.8645 29.7501 35.0382C31.7449 34.212 33.4499 32.8127 34.6494 31.0175C35.8489 29.2223 36.4892 27.1116 36.4892 24.9525C36.4892 22.0572 35.339 19.2805 33.2918 17.2332C31.2445 15.1859 28.4678 14.0358 25.5725 14.0358Z" fill="white"/>
</svg>
