<svg width="50" height="50" viewBox="0 0 50 50" fill="none" xmlns="http://www.w3.org/2000/svg">
<g clip-path="url(#clip0)">
<path d="M0 0V49.9H49.9V0H0ZM7.75429 20.6193H20.4486C21.7472 20.6284 23.1123 21.1278 24.1582 22.0903C25.121 23.0409 25.6866 24.4042 25.7146 25.8639C25.7097 26.9848 25.4962 28.2764 24.7521 29.3055C24.2321 30.0055 23.4179 30.5348 22.5196 30.8375V30.9563C23.4656 31.1928 24.3981 31.6982 25.0627 32.5339C25.8533 33.5562 26.1237 34.9352 26.147 36.2922C26.1375 37.7319 25.6391 39.2737 24.5236 40.416C23.5321 41.3901 22.1085 41.9477 20.6099 41.9784H7.75404V20.6194L7.75429 20.6193ZM29.9997 20.6619H39.4411V24.1644H29.9997V20.6619ZM34.5194 25.2121C35.8368 25.2121 37.0054 25.3832 38.025 25.7268C39.0535 26.0604 39.9192 26.5819 40.6229 27.2892C41.3266 27.9866 41.8579 28.8758 42.2188 29.9572C42.6948 31.3728 42.7851 33.185 42.7762 34.8394H31.7994C31.7994 35.9714 32.0244 36.8504 32.4756 37.4769C32.9357 38.0935 33.6888 38.3998 34.7354 38.3998C35.7298 38.3951 36.8946 38.0763 37.2786 36.9591C37.3778 36.6661 37.4278 36.3546 37.4278 36.0211H42.776C42.7649 37.7206 42.2177 39.4086 40.7842 40.6596C39.2005 41.9478 36.987 42.3153 34.8573 42.3561C33.54 42.3561 32.3494 42.1901 31.2848 41.8566C30.2291 41.5129 29.3322 40.9864 28.5924 40.2789C27.8525 39.5715 27.2838 38.6823 26.8868 37.611C26.4898 36.5295 26.2899 35.252 26.2899 33.7765C26.2899 32.3414 26.4836 31.0895 26.8716 30.0181C27.2595 28.9469 27.8096 28.0576 28.5223 27.3501C29.2441 26.6326 30.1097 26.0958 31.1202 25.7421C32.1398 25.3883 33.274 25.2121 34.5192 25.2121L34.5194 25.2121V25.2121ZM13.8729 25.3035V28.94H18.0821C18.4615 28.9371 18.8225 28.7633 19.0963 28.4557C19.3622 28.132 19.4925 27.7055 19.5013 27.2588V26.9542C19.4986 26.5511 19.3437 26.1347 19.0811 25.7877C18.8424 25.5058 18.4844 25.3238 18.0821 25.3035H13.8729V25.3035ZM34.7355 29.1532C33.8062 29.1532 33.1124 29.4011 32.6523 29.8963C32.2011 30.3915 31.9262 31.0635 31.8269 31.9125H37.2116C37.2116 31.0534 36.9959 30.3814 36.5629 29.8963C36.1298 29.4011 35.5204 29.1532 34.7355 29.1532ZM13.8729 33.3531V37.0048H18.5267C18.9018 37.0019 19.2609 36.8297 19.5409 36.5358C19.8055 36.2136 19.9423 35.785 19.949 35.3388V35.0191C19.9466 34.6123 19.8147 34.1881 19.5409 33.8374C19.3005 33.5539 18.9284 33.3761 18.5267 33.3531H13.8729Z" fill="white"/>
</g>
<defs>
<clipPath id="clip0">
<rect width="49.9" height="49.9" rx="5" fill="white"/>
</clipPath>
</defs>
</svg>
