<svg width="51" height="50" viewBox="0 0 51 50" fill="none" xmlns="http://www.w3.org/2000/svg">
<path fill-rule="evenodd" clip-rule="evenodd" d="M40.9492 9.46451C38.9307 7.44498 36.5326 5.84465 33.8931 4.75565C31.2536 3.66665 28.4247 3.11048 25.5693 3.11916C13.5863 3.11916 3.83143 12.8253 3.82656 24.7577C3.82126 28.5572 4.8228 32.2903 6.72923 35.5769L3.64429 46.786L15.1702 43.7771C18.3606 45.5055 21.9321 46.4101 25.5606 46.4088H25.5693C37.5514 46.4088 47.3053 36.7017 47.3112 24.7703C47.3184 21.9247 46.7597 19.1061 45.6675 16.4784C44.5753 13.8508 42.9714 11.4666 40.9492 9.46451ZM25.5693 42.7566H25.5615C22.3269 42.7575 19.151 41.8919 16.3642 40.2496L15.7043 39.8598L8.86482 41.6454L10.6904 35.0087L10.2606 34.3264C8.45192 31.4628 7.49365 28.1445 7.4973 24.7577C7.4973 14.842 15.6078 6.77432 25.5762 6.77432C30.3581 6.76578 34.9475 8.65699 38.3352 12.032C41.7228 15.407 43.6311 19.9894 43.6404 24.7713C43.6365 34.688 35.5299 42.7566 25.5693 42.7566ZM35.4811 29.2871C34.9382 29.0162 32.2646 27.7081 31.7695 27.5278C31.2743 27.3475 30.9088 27.2568 30.5472 27.7987C30.1856 28.3407 29.1436 29.5532 28.8268 29.9187C28.51 30.2842 28.1933 30.3242 27.6503 30.0532C27.1074 29.7823 25.3559 29.2121 23.2807 27.3699C21.6656 25.9361 20.5759 24.166 20.2591 23.625C19.9424 23.0841 20.225 22.7907 20.497 22.5217C20.7416 22.279 21.0399 21.8901 21.3118 21.5743C21.5838 21.2585 21.6744 21.0323 21.8547 20.6717C22.0351 20.311 21.9454 19.9952 21.8099 19.7252C21.6744 19.4552 20.5876 16.7933 20.1354 15.7104C19.6938 14.6558 19.2464 14.7991 18.9131 14.7825C18.5963 14.7669 18.2308 14.763 17.8711 14.763C17.5962 14.7702 17.3256 14.8339 17.0764 14.9503C16.8272 15.0667 16.6047 15.2332 16.4227 15.4395C15.9246 15.9814 14.521 17.2914 14.521 19.9504C14.521 22.6094 16.4705 25.1826 16.7395 25.5433C17.0085 25.9039 20.5701 31.3652 26.0197 33.7074C27.0316 34.1408 28.0656 34.5208 29.1173 34.8459C30.4185 35.2572 31.6028 35.1997 32.5385 35.0603C33.5824 34.9053 35.755 33.7523 36.2063 32.489C36.6576 31.2258 36.6586 30.1439 36.5231 29.9187C36.3876 29.6936 36.025 29.5571 35.4811 29.2871Z" fill="white"/>
</svg>
