<svg width="51" height="50" viewBox="0 0 51 50" fill="none" xmlns="http://www.w3.org/2000/svg">
<path d="M44.0087 3.11906H7.56541C5.57408 3.11906 3.83423 4.55188 3.83423 6.51982V43.044C3.83423 45.0227 5.57408 46.7859 7.56541 46.7859H43.998C46 46.7859 47.5011 45.011 47.5011 43.044V6.51982C47.5128 4.55188 46 3.11906 44.0087 3.11906ZM17.37 39.5175H11.1143V20.0673H17.37V39.5175ZM14.4585 17.11H14.4137C12.4116 17.11 11.1153 15.6197 11.1153 13.7541C11.1153 11.8544 12.4458 10.3992 14.4926 10.3992C16.5395 10.3992 17.792 11.8437 17.8369 13.7541C17.8359 15.6197 16.5395 17.11 14.4585 17.11ZM40.2327 39.5175H33.977V28.8825C33.977 26.3346 33.0667 24.5938 30.8034 24.5938C29.0743 24.5938 28.0508 25.7635 27.5956 26.9029C27.4251 27.3123 27.3792 27.8698 27.3792 28.439V39.5175H21.1236V20.0673H27.3792V22.774C28.2896 21.4777 29.7117 19.6121 33.0209 19.6121C37.1273 19.6121 40.2337 22.3188 40.2337 28.1544L40.2327 39.5175Z" fill="white"/>
</svg>
