<svg width="50" height="50" viewBox="0 0 50 50" fill="none" xmlns="http://www.w3.org/2000/svg">
<g clip-path="url(#clip0)">
<path fill-rule="evenodd" clip-rule="evenodd" d="M24.95 0C11.1755 0 0 11.1755 0 24.95C0 38.7245 11.1755 49.9 24.95 49.9C38.6974 49.9 49.9 38.7245 49.9 24.95C49.9 11.1755 38.6974 0 24.95 0ZM41.4295 11.4999C44.5014 15.241 46.2013 19.9203 46.2469 24.7608C45.5441 24.6257 38.5082 23.191 31.4183 24.0851C31.254 23.7316 31.1189 23.3532 30.9567 22.9748C30.5158 21.934 30.0471 20.9051 29.5512 19.8893C37.398 16.6957 40.97 12.0966 41.4295 11.4999V11.4999ZM24.95 3.6822C30.3621 3.6822 35.3146 5.70939 39.0759 9.03814C38.6975 9.57872 35.4768 13.8826 27.9003 16.7227C24.4073 10.3106 20.5401 5.05861 19.9434 4.24774C21.5845 3.86452 23.2647 3.67403 24.95 3.68012V3.6822ZM15.8848 5.68236C16.4524 6.44126 20.2407 11.7182 23.7857 17.9952C13.8265 20.6482 5.03158 20.5941 4.08556 20.5941C5.46613 13.9907 9.93218 8.49755 15.8848 5.68236ZM3.62607 24.977V24.3283C4.54714 24.3554 14.8827 24.4905 25.5197 21.2969C26.1414 22.4883 26.709 23.7046 27.2496 24.923C26.9793 25.0041 26.6819 25.0851 26.4117 25.1662C15.4253 28.7112 9.57872 38.398 9.0922 39.211C5.57302 35.3053 3.62565 30.2343 3.62607 24.977V24.977ZM24.95 46.2739C20.0245 46.2739 15.4794 44.596 11.8804 41.7829C12.2588 40.997 16.5876 32.6616 28.6031 28.468C28.6572 28.4409 28.6863 28.4409 28.7382 28.4139C31.7426 36.1796 32.959 42.7019 33.2854 44.569C30.7135 45.6793 27.9003 46.2739 24.95 46.2739ZM36.8304 42.6208C36.6141 41.3214 35.4768 35.0984 32.6887 27.4388C39.3732 26.3846 45.2177 28.1166 45.9496 28.3598C45.0285 34.2855 41.6187 39.4002 36.8304 42.6208Z" fill="white"/>
</g>
<defs>
<clipPath id="clip0">
<rect width="49.9" height="49.9" fill="white"/>
</clipPath>
</defs>
</svg>
