<svg width="51" height="50" viewBox="0 0 51 50" fill="none" xmlns="http://www.w3.org/2000/svg">
<path d="M3.53931 2.72918V47.1758H47.9859V2.72918H3.53931ZM40.4641 13.2599L38.08 15.5456C37.8743 15.7025 37.773 15.9599 37.8149 16.2142V33.0065C37.772 33.2609 37.8743 33.5192 38.08 33.6751L40.4076 35.9608V36.4628H28.6994V35.9608L31.1108 33.6196C31.3477 33.3827 31.3477 33.3126 31.3477 32.9509V19.3781L24.6427 36.4072H23.7362L15.9298 19.3781V30.792C15.8645 31.2715 16.0243 31.755 16.3616 32.102L19.4982 35.9062V36.4082H10.605V35.9062L13.7416 32.102C14.0769 31.754 14.227 31.2676 14.1461 30.792V17.5935C14.1831 17.227 14.0437 16.8644 13.7698 16.6178L10.9822 13.2589V12.757H19.6385L26.3299 27.4312L32.2123 12.757H40.4641V13.2599Z" fill="white"/>
</svg>
