<svg width="50" height="50" viewBox="0 0 50 50" fill="none" xmlns="http://www.w3.org/2000/svg">
<path d="M24.9525 3.11906C12.8953 3.11906 3.11902 13.1488 3.11902 25.5081C3.11902 35.4014 9.37664 43.7838 18.0515 46.7469C18.1732 46.7734 18.2974 46.7864 18.4219 46.7859C19.2309 46.7859 19.5428 46.1914 19.5428 45.6748C19.5428 45.1387 19.5233 43.7351 19.5136 41.8637C18.7914 42.033 18.0525 42.1212 17.3108 42.1268C13.1098 42.1268 12.1546 38.8616 12.1546 38.8616C11.1604 36.2786 9.72753 35.5866 9.72753 35.5866C7.82685 34.2512 9.71778 34.2122 9.86399 34.2122H9.87374C12.0668 34.4072 13.217 36.532 13.217 36.532C14.3087 38.4424 15.7707 38.9785 17.0768 38.9785C17.9404 38.9613 18.7907 38.762 19.5721 38.3937C19.767 36.9511 20.3323 35.9667 20.9562 35.4014C16.1119 34.836 11.0141 32.9159 11.0141 24.3384C11.0141 21.8919 11.8621 19.8938 13.256 18.3342C13.0318 17.7689 12.2813 15.4881 13.4704 12.408C13.6299 12.3699 13.7939 12.3535 13.9578 12.3593C14.7473 12.3593 16.531 12.6614 19.4746 14.7083C23.0513 13.7076 26.8341 13.7076 30.4108 14.7083C33.3544 12.6614 35.1381 12.3593 35.9277 12.3593C36.0916 12.3535 36.2555 12.3699 36.415 12.408C37.6041 15.4881 36.8536 17.7689 36.6294 18.3342C38.0233 19.9035 38.8713 21.9017 38.8713 24.3384C38.8713 32.9353 33.7638 34.8263 28.9 35.3819C29.6798 36.0739 30.3816 37.4385 30.3816 39.5244C30.3816 42.5167 30.3523 44.934 30.3523 45.665C30.3523 46.1914 30.6545 46.7859 31.4635 46.7859C31.5945 46.7865 31.7251 46.7734 31.8534 46.7469C40.538 43.7838 46.7859 35.3916 46.7859 25.5081C46.7859 13.1488 37.0096 3.11906 24.9525 3.11906Z" fill="white"/>
</svg>
