<svg width="110" height="110" viewBox="0 0 110 110" fill="none" xmlns="http://www.w3.org/2000/svg">
<path d="M59.3737 3.6438C58.4456 4.4688 51.2268 18.7946 51.2268 18.7946L45.8557 40.4594L66.7557 38.543C66.7557 38.543 84.1409 6.21333 84.4932 5.46567C85.1206 4.10786 85.4557 3.54927 83.0581 3.54927C80.6604 3.54067 60.2416 2.87036 59.3737 3.6438V3.6438Z" fill="#176CC7"/>
<path d="M70.1943 37.2024C69.1544 36.6438 38.5263 36.1625 37.8044 37.2024C37.1513 38.1477 37.5208 43.1063 37.7701 43.6992C38.2169 44.7305 48.0568 48.7266 48.0568 48.7266V51.2102C48.0568 51.2102 48.7271 51.4852 54.4677 51.4852C60.2083 51.4852 61.3513 51.193 61.3513 51.193L61.3943 48.8039C61.3943 48.8039 69.9365 44.4039 70.3833 43.7938C70.7787 43.2867 71.2341 37.761 70.1943 37.2024ZM61.3083 45.0571C61.3083 45.0571 61.4287 43.8711 60.8357 43.5789C60.2427 43.2782 49.9904 43.3297 49.1826 43.3727C48.3748 43.4157 48.3748 44.8594 48.3748 44.8594L41.9552 41.4649L41.8435 40.3305L65.8544 40.4594L65.906 41.9891L61.3083 45.0571V45.0571Z" fill="#FCC11A"/>
<path d="M50.738 44.5501C49.9302 44.5501 49.3201 45.461 49.3201 46.9048C49.3201 48.2626 49.7841 49.3797 50.8068 49.3196C51.7779 49.268 52.2419 48.0391 52.1732 46.8876C52.0873 45.5383 51.7607 44.5501 50.738 44.5501V44.5501Z" fill="#FDFFFF"/>
<path d="M25.1887 79.1398C25.1887 99.7305 43.8458 108.298 56.2293 107.929C70.6583 107.499 86.1786 96.5508 84.8981 76.9055C83.695 58.4719 67.977 49.6719 54.4161 49.775C38.6551 49.8867 25.1887 61.1531 25.1887 79.1398V79.1398Z" fill="#F8932A"/>
<path d="M55.4471 104.234C55.2323 104.234 55.0088 104.234 54.794 104.225C48.3487 104.01 41.8002 101.578 37.1424 97.0664C32.158 92.2367 29.0815 86.1265 29.0643 79.1054C29.0213 60.6633 44.8252 53.8828 54.9916 53.8828H55.0776C68.8534 53.9429 80.7557 64.2383 81.0651 78.7531C81.2026 85.2156 78.5557 92.0562 73.3651 97.1609C68.5268 101.913 61.3854 104.234 55.4471 104.234V104.234Z" fill="#FCC11A"/>
<path d="M21.9228 3.19682C21.3814 3.69526 42.0837 40.5624 42.0837 40.5624C42.0837 40.5624 45.5556 41.0093 53.3072 41.0781C61.0587 41.1468 64.9001 40.6312 64.9001 40.6312C64.9001 40.6312 48.804 3.56635 47.8415 3.19682C47.3689 3.00776 40.9923 2.93901 34.7619 2.87026C28.5228 2.79291 22.4384 2.71557 21.9228 3.19682V3.19682Z" fill="#2E9DF4"/>
<path d="M44.9372 57.8789C43.6825 56.8047 37.2973 60.0445 32.8114 67.4609C29.8036 72.4367 29.5458 78.8047 31.4622 78.9078C33.3786 79.0109 33.3528 72.7117 37.5208 67.2031C42.5567 60.5773 46.7505 59.4344 44.9372 57.8789Z" fill="#FEFFFA"/>
<path d="M55.3177 57.4921C53.6419 57.4921 51.0294 68.5695 48.9755 69.9359C46.9216 71.3023 36.2825 69.996 36.1622 71.4913C36.0419 72.9867 44.0599 79.2085 44.9966 81.5031C45.9333 83.7976 40.9489 94.0671 42.3239 95.064C43.6904 96.0609 52.2755 88.9023 55.1372 88.9023C58.1193 88.9023 65.8021 96.5421 67.0825 95.4937C68.4318 94.3937 64.1005 84.3562 64.7794 82.0531C65.4669 79.7499 74.7911 74.8343 74.4216 72.5999C74.0521 70.357 63.2239 72.0413 61.2302 70.1765C59.2364 68.3117 57.1224 57.4921 55.3177 57.4921Z" fill="#F8932A"/>
</svg>
