<svg width="34" height="34" viewBox="0 0 34 34" fill="none" xmlns="http://www.w3.org/2000/svg">
<path d="M34 6.50207e-07L34 11.3333L-4.95396e-07 11.3333L0 -8.3598e-07L34 6.50207e-07Z" fill="white"/>
<path d="M34 22.6667L34 34L-1.48619e-06 34L-9.90791e-07 22.6667L34 22.6667Z" fill="white"/>
<path d="M12.5926 -2.8554e-07L21.4074 -2.85541e-07L21.4074 34L12.5926 34L12.5926 -2.8554e-07Z" fill="white"/>
<path d="M34 34L25.1852 34L25.1852 2.64899e-07L34 6.50207e-07L34 34Z" fill="white"/>
<path d="M8.81481 34L-1.48619e-06 34L0 -8.3598e-07L8.81482 -1.10088e-06L8.81481 34Z" fill="white"/>
</svg>
